<?xml version="1.0" encoding="UTF-8" standalone="no"?>
<!-- Created with Inkscape (http://www.inkscape.org/) -->

<svg
   xmlns:dc="http://purl.org/dc/elements/1.1/"
   xmlns:cc="http://creativecommons.org/ns#"
   xmlns:rdf="http://www.w3.org/1999/02/22-rdf-syntax-ns#"
   xmlns:svg="http://www.w3.org/2000/svg"
   xmlns="http://www.w3.org/2000/svg"
   xmlns:sodipodi="http://sodipodi.sourceforge.net/DTD/sodipodi-0.dtd"
   xmlns:inkscape="http://www.inkscape.org/namespaces/inkscape"
   width="650.22656"
   height="107.57813"
   id="svg2"
   version="1.1"
   inkscape:version="0.48.5 r10040"
   sodipodi:docname="true-north-topeka-logo.svg"
   inkscape:export-filename="/Users/sam/Documents/Business/TrueNorth/Images/Logo/TN-Logo.png"
   inkscape:export-xdpi="199.47047"
   inkscape:export-ydpi="199.47047">
  <defs
     id="defs4" />
  <sodipodi:namedview
     id="base"
     pagecolor="#ffffff"
     bordercolor="#666666"
     borderopacity="1.0"
     inkscape:pageopacity="0.0"
     inkscape:pageshadow="2"
     inkscape:zoom="0.35"
     inkscape:cx="329.22364"
     inkscape:cy="169.67243"
     inkscape:document-units="px"
     inkscape:current-layer="layer1"
     showgrid="false"
     showguides="true"
     inkscape:guide-bbox="true"
     inkscape:window-width="1282"
     inkscape:window-height="751"
     inkscape:window-x="0"
     inkscape:window-y="0"
     inkscape:window-maximized="0"
     fit-margin-top="0"
     fit-margin-left="0"
     fit-margin-right="0"
     fit-margin-bottom="0" />
  <metadata
     id="metadata7">
    <rdf:RDF>
      <cc:Work
         rdf:about="">
        <dc:format>image/svg+xml</dc:format>
        <dc:type
           rdf:resource="http://purl.org/dc/dcmitype/StillImage" />
        <dc:title></dc:title>
      </cc:Work>
    </rdf:RDF>
  </metadata>
  <g
     inkscape:label="Layer 1"
     inkscape:groupmode="layer"
     id="layer1"
     transform="translate(-45.446005,-594.45648)">
    <g
       id="text3082"
       style="font-size:144px;font-style:normal;font-weight:normal;line-height:125%;letter-spacing:0px;word-spacing:0px;fill:#000000;fill-opacity:1;stroke:none;font-family:Sans"
       transform="translate(9.7540418,91.123291)">
      <path
         inkscape:connector-curvature="0"
         id="path3027"
         style="font-variant:normal;font-weight:bold;font-stretch:normal;letter-spacing:-5.57000017px;font-family:Trebuchet MS;-inkscape-font-specification:Trebuchet MS Bold"
         d="m 86.738838,522.73938 0,86.76562 -18.28125,0 0,-86.76562 -32.765625,0 0,-16.24219 85.289067,0 0,16.24219 -34.242192,0" />
      <path
         inkscape:connector-curvature="0"
         id="path3029"
         style="font-variant:normal;font-weight:bold;font-stretch:normal;letter-spacing:-5.57000017px;font-family:Trebuchet MS;-inkscape-font-specification:Trebuchet MS Bold"
         d="m 169.76259,550.58313 c -3.14068,-2.06244 -6.58599,-3.09369 -10.33594,-3.09375 -4.07816,6e-5 -7.71097,1.85162 -10.89844,5.55469 -3.14065,3.70318 -4.71096,8.22661 -4.71093,13.57031 l 0,42.89062 -17.57813,0 0,-75.30468 17.57813,0 0,6.89062 c 4.92184,-5.53117 11.46089,-8.2968 19.61718,-8.29687 5.99995,7e-5 10.5937,0.91414 13.78125,2.74218 l -7.45312,15.04688" />
      <path
         inkscape:connector-curvature="0"
         id="path3031"
         style="font-variant:normal;font-weight:bold;font-stretch:normal;letter-spacing:-5.57000017px;font-family:Trebuchet MS;-inkscape-font-specification:Trebuchet MS Bold"
         d="m 230.77853,609.57532 0,-6.32813 c -2.48443,2.10938 -5.90631,3.91407 -10.26563,5.41406 -4.35942,1.5 -8.36723,2.25 -12.02344,2.25 -17.48439,0 -26.22657,-9.28124 -26.22656,-27.84375 l 0,-48.86718 17.57813,0 0,47.53125 c -3e-5,9.65627 4.3359,14.48439 13.00781,14.48437 3.98433,2e-5 7.68745,-1.03123 11.10937,-3.09375 3.42182,-2.06248 5.69526,-4.4531 6.82032,-7.17187 l 0,-51.75 17.57812,0 0,75.375 -17.57812,0" />
      <path
         inkscape:connector-curvature="0"
         id="path3033"
         style="font-variant:normal;font-weight:bold;font-stretch:normal;letter-spacing:-5.57000017px;font-family:Trebuchet MS;-inkscape-font-specification:Trebuchet MS Bold"
         d="m 329.13039,577.23157 -53.78906,0 c 0.3281,6.00002 2.3906,10.66408 6.1875,13.99218 3.79684,3.32814 8.90621,4.99221 15.32813,4.99219 8.01557,2e-5 14.10931,-2.08592 18.28125,-6.25781 l 6.82031,13.42969 c -6.18756,5.01562 -15.42193,7.52343 -27.70313,7.52343 -11.4844,0 -20.57814,-3.35156 -27.28125,-10.05468 -6.65625,-6.74999 -9.98438,-16.14842 -9.98437,-28.19532 -1e-5,-11.85932 3.65624,-21.46869 10.96875,-28.82812 7.35935,-7.3593 16.17184,-11.03899 26.4375,-11.03906 10.92182,7e-5 19.68744,3.25788 26.29687,9.77343 6.6093,6.51569 9.91399,14.81256 9.91407,24.89063 -8e-5,2.15629 -0.49227,5.4141 -1.47657,9.77344 m -53.15625,-13.21875 36.98438,0 c -1.21881,-11.01557 -7.31255,-16.52338 -18.28125,-16.52344 -10.03128,6e-5 -16.26565,5.50787 -18.70313,16.52344" />
    </g>
    <g
       id="text3086"
       style="font-size:144px;font-style:normal;font-weight:normal;line-height:125%;letter-spacing:0px;word-spacing:0px;fill:#3c6994;fill-opacity:1;stroke:none;font-family:Sans"
       transform="translate(9.7540418,91.123291)">
      <path
         inkscape:connector-curvature="0"
         id="path3036"
         style="font-variant:normal;font-stretch:normal;font-family:Trebuchet MS;-inkscape-font-specification:Trebuchet MS"
         d="m 411.41855,610.91132 -53.22656,-75.30469 0,73.89844 -13.35938,0 0,-103.00782 5.625,0 51.82031,71.22657 0,-71.22657 13.35938,0 0,104.41407 -4.21875,0" />
      <path
         inkscape:connector-curvature="0"
         id="path3038"
         style="font-variant:normal;font-stretch:normal;font-family:Trebuchet MS;-inkscape-font-specification:Trebuchet MS"
         d="m 430.8248,571.67694 c -10e-6,-11.62495 3.11718,-20.99994 9.35156,-28.125 6.28123,-7.1718 14.53122,-10.75773 24.75,-10.75781 10.7812,8e-5 19.14838,3.44538 25.10156,10.33594 5.95306,6.84381 8.92962,16.35942 8.92969,28.54687 -7e-5,12.14065 -3.04694,21.72658 -9.14062,28.75781 -6.09381,6.98438 -14.39068,10.47656 -24.89063,10.47657 -10.7344,-1e-5 -19.10158,-3.53906 -25.10156,-10.61719 -6.00001,-7.07811 -9.00001,-16.61716 -9,-28.61719 m 14.0625,0 c -2e-5,18.89064 6.67966,28.33595 20.03906,28.33594 6.23433,10e-6 11.10933,-2.53124 14.625,-7.59375 3.56244,-5.06248 5.34369,-11.97654 5.34375,-20.74219 -6e-5,-18.65619 -6.6563,-27.98431 -19.96875,-27.98437 -6.09378,6e-5 -10.96878,2.48443 -14.625,7.45312 -3.60939,4.9688 -5.41408,11.81255 -5.41406,20.53125" />
      <path
         inkscape:connector-curvature="0"
         id="path3040"
         style="font-variant:normal;font-stretch:normal;font-family:Trebuchet MS;-inkscape-font-specification:Trebuchet MS"
         d="m 554.0123,547.06757 c -2.9063,-2.01556 -5.83598,-3.02338 -8.78906,-3.02344 -4.73442,6e-5 -8.88285,2.17975 -12.44532,6.53906 -3.51565,4.35943 -5.27346,9.60943 -5.27343,15.75 l 0,43.17188 -13.35938,0 0,-75.30469 13.35938,0 0,12.02344 c 4.87497,-8.95306 12.11715,-13.42961 21.72656,-13.42969 2.39058,8e-5 5.83588,0.42195 10.33594,1.26562 l -5.55469,13.00782" />
      <path
         inkscape:connector-curvature="0"
         id="path3042"
         style="font-variant:normal;font-stretch:normal;font-family:Trebuchet MS;-inkscape-font-specification:Trebuchet MS"
         d="m 573.84042,544.74725 -8.71875,0 0,-10.54687 8.71875,0 0,-15.75 13.35938,-5.13281 0,20.88281 20.67187,0 0,10.54687 -20.67187,0 0,37.40625 c -3e-5,6.32815 1.05466,10.82814 3.16406,13.5 2.15622,2.67189 5.60153,4.00783 10.33594,4.00782 3.42183,10e-6 6.96089,-0.86718 10.61719,-2.60157 l 1.96875,11.74219 c -5.5313,1.40625 -11.60161,2.10937 -18.21094,2.10938 -5.95316,-1e-5 -10.99221,-2.20313 -15.11719,-6.60938 -4.07814,-4.45311 -6.1172,-10.05467 -6.11719,-16.80469 l 0,-42.75" />
      <path
         inkscape:connector-curvature="0"
         id="path3044"
         style="font-variant:normal;font-stretch:normal;font-family:Trebuchet MS;-inkscape-font-specification:Trebuchet MS"
         d="m 672.55917,609.50507 0,-47.32032 c -5e-5,-5.62494 -1.38286,-10.05463 -4.14843,-13.28906 -2.76568,-3.23431 -6.6563,-4.8515 -11.67188,-4.85156 -3.23441,6e-5 -6.49222,0.961 -9.77344,2.88281 -3.2344,1.87506 -5.71877,4.07818 -7.45312,6.60938 l 0,55.96875 -13.35938,0 0,-106.17188 13.35938,0 0,39.16406 c 1.78122,-2.76555 4.6406,-5.06242 8.57812,-6.89062 3.98434,-1.87493 8.0859,-2.81242 12.30469,-2.8125 7.9687,8e-5 14.20307,2.62507 18.70313,7.875 4.5468,5.25006 6.82024,12.42193 6.82031,21.51562 l 0,47.32032 -13.35938,0" />
    </g>
  </g>
</svg>
