<?xml version="1.0" encoding="UTF-8" standalone="no"?>
<!-- Created with Inkscape (http://www.inkscape.org/) -->

<svg
   xmlns:dc="http://purl.org/dc/elements/1.1/"
   xmlns:cc="http://creativecommons.org/ns#"
   xmlns:rdf="http://www.w3.org/1999/02/22-rdf-syntax-ns#"
   xmlns:svg="http://www.w3.org/2000/svg"
   xmlns="http://www.w3.org/2000/svg"
   xmlns:sodipodi="http://sodipodi.sourceforge.net/DTD/sodipodi-0.dtd"
   xmlns:inkscape="http://www.inkscape.org/namespaces/inkscape"
   width="653.20245"
   height="171.8114"
   id="svg2"
   version="1.1"
   inkscape:version="0.48.5 r10040"
   sodipodi:docname="true-north-topeka-logo.svg"
   inkscape:export-filename="/Users/sam/Documents/Business/TrueNorth/Images/Logo/TN-Logo.png"
   inkscape:export-xdpi="199.47047"
   inkscape:export-ydpi="199.47047">
  <defs
     id="defs4" />
  <sodipodi:namedview
     id="base"
     pagecolor="#ffffff"
     bordercolor="#666666"
     borderopacity="1.0"
     inkscape:pageopacity="0.0"
     inkscape:pageshadow="2"
     inkscape:zoom="0.35"
     inkscape:cx="329.22364"
     inkscape:cy="233.9057"
     inkscape:document-units="px"
     inkscape:current-layer="layer1"
     showgrid="false"
     showguides="true"
     inkscape:guide-bbox="true"
     inkscape:window-width="1282"
     inkscape:window-height="751"
     inkscape:window-x="0"
     inkscape:window-y="0"
     inkscape:window-maximized="0"
     fit-margin-top="0"
     fit-margin-left="0"
     fit-margin-right="0"
     fit-margin-bottom="0" />
  <metadata
     id="metadata7">
    <rdf:RDF>
      <cc:Work
         rdf:about="">
        <dc:format>image/svg+xml</dc:format>
        <dc:type
           rdf:resource="http://purl.org/dc/dcmitype/StillImage" />
        <dc:title />
      </cc:Work>
    </rdf:RDF>
  </metadata>
  <g
     inkscape:label="Layer 1"
     inkscape:groupmode="layer"
     id="layer1"
     transform="translate(-45.446005,-594.45648)">
    <g
       id="g3096"
       transform="translate(9.7540418,91.123291)">
      <g
         style="font-size:144px;font-style:normal;font-weight:normal;line-height:125%;letter-spacing:0px;word-spacing:0px;fill:#000000;fill-opacity:1;stroke:none;font-family:Sans"
         id="text3082">
        <path
           d="m 86.738838,522.73938 0,86.76562 -18.28125,0 0,-86.76562 -32.765625,0 0,-16.24219 85.289067,0 0,16.24219 -34.242192,0"
           style="font-variant:normal;font-weight:bold;font-stretch:normal;letter-spacing:-5.57000017px;font-family:Trebuchet MS;-inkscape-font-specification:Trebuchet MS Bold"
           id="path3027"
           inkscape:connector-curvature="0" />
        <path
           d="m 169.76259,550.58313 c -3.14068,-2.06244 -6.58599,-3.09369 -10.33594,-3.09375 -4.07816,6e-5 -7.71097,1.85162 -10.89844,5.55469 -3.14065,3.70318 -4.71096,8.22661 -4.71093,13.57031 l 0,42.89062 -17.57813,0 0,-75.30468 17.57813,0 0,6.89062 c 4.92184,-5.53117 11.46089,-8.2968 19.61718,-8.29687 5.99995,7e-5 10.5937,0.91414 13.78125,2.74218 l -7.45312,15.04688"
           style="font-variant:normal;font-weight:bold;font-stretch:normal;letter-spacing:-5.57000017px;font-family:Trebuchet MS;-inkscape-font-specification:Trebuchet MS Bold"
           id="path3029"
           inkscape:connector-curvature="0" />
        <path
           d="m 230.77853,609.57532 0,-6.32813 c -2.48443,2.10938 -5.90631,3.91407 -10.26563,5.41406 -4.35942,1.5 -8.36723,2.25 -12.02344,2.25 -17.48439,0 -26.22657,-9.28124 -26.22656,-27.84375 l 0,-48.86718 17.57813,0 0,47.53125 c -3e-5,9.65627 4.3359,14.48439 13.00781,14.48437 3.98433,2e-5 7.68745,-1.03123 11.10937,-3.09375 3.42182,-2.06248 5.69526,-4.4531 6.82032,-7.17187 l 0,-51.75 17.57812,0 0,75.375 -17.57812,0"
           style="font-variant:normal;font-weight:bold;font-stretch:normal;letter-spacing:-5.57000017px;font-family:Trebuchet MS;-inkscape-font-specification:Trebuchet MS Bold"
           id="path3031"
           inkscape:connector-curvature="0" />
        <path
           d="m 329.13039,577.23157 -53.78906,0 c 0.3281,6.00002 2.3906,10.66408 6.1875,13.99218 3.79684,3.32814 8.90621,4.99221 15.32813,4.99219 8.01557,2e-5 14.10931,-2.08592 18.28125,-6.25781 l 6.82031,13.42969 c -6.18756,5.01562 -15.42193,7.52343 -27.70313,7.52343 -11.4844,0 -20.57814,-3.35156 -27.28125,-10.05468 -6.65625,-6.74999 -9.98438,-16.14842 -9.98437,-28.19532 -1e-5,-11.85932 3.65624,-21.46869 10.96875,-28.82812 7.35935,-7.3593 16.17184,-11.03899 26.4375,-11.03906 10.92182,7e-5 19.68744,3.25788 26.29687,9.77343 6.6093,6.51569 9.91399,14.81256 9.91407,24.89063 -8e-5,2.15629 -0.49227,5.4141 -1.47657,9.77344 m -53.15625,-13.21875 36.98438,0 c -1.21881,-11.01557 -7.31255,-16.52338 -18.28125,-16.52344 -10.03128,6e-5 -16.26565,5.50787 -18.70313,16.52344"
           style="font-variant:normal;font-weight:bold;font-stretch:normal;letter-spacing:-5.57000017px;font-family:Trebuchet MS;-inkscape-font-specification:Trebuchet MS Bold"
           id="path3033"
           inkscape:connector-curvature="0" />
      </g>
      <g
         style="font-size:144px;font-style:normal;font-weight:normal;line-height:125%;letter-spacing:0px;word-spacing:0px;fill:#3c6994;fill-opacity:1;stroke:none;font-family:Sans"
         id="text3086">
        <path
           d="m 411.41855,610.91132 -53.22656,-75.30469 0,73.89844 -13.35938,0 0,-103.00782 5.625,0 51.82031,71.22657 0,-71.22657 13.35938,0 0,104.41407 -4.21875,0"
           style="font-variant:normal;font-stretch:normal;font-family:Trebuchet MS;-inkscape-font-specification:Trebuchet MS"
           id="path3036"
           inkscape:connector-curvature="0" />
        <path
           d="m 430.8248,571.67694 c -10e-6,-11.62495 3.11718,-20.99994 9.35156,-28.125 6.28123,-7.1718 14.53122,-10.75773 24.75,-10.75781 10.7812,8e-5 19.14838,3.44538 25.10156,10.33594 5.95306,6.84381 8.92962,16.35942 8.92969,28.54687 -7e-5,12.14065 -3.04694,21.72658 -9.14062,28.75781 -6.09381,6.98438 -14.39068,10.47656 -24.89063,10.47657 -10.7344,-1e-5 -19.10158,-3.53906 -25.10156,-10.61719 -6.00001,-7.07811 -9.00001,-16.61716 -9,-28.61719 m 14.0625,0 c -2e-5,18.89064 6.67966,28.33595 20.03906,28.33594 6.23433,10e-6 11.10933,-2.53124 14.625,-7.59375 3.56244,-5.06248 5.34369,-11.97654 5.34375,-20.74219 -6e-5,-18.65619 -6.6563,-27.98431 -19.96875,-27.98437 -6.09378,6e-5 -10.96878,2.48443 -14.625,7.45312 -3.60939,4.9688 -5.41408,11.81255 -5.41406,20.53125"
           style="font-variant:normal;font-stretch:normal;font-family:Trebuchet MS;-inkscape-font-specification:Trebuchet MS"
           id="path3038"
           inkscape:connector-curvature="0" />
        <path
           d="m 554.0123,547.06757 c -2.9063,-2.01556 -5.83598,-3.02338 -8.78906,-3.02344 -4.73442,6e-5 -8.88285,2.17975 -12.44532,6.53906 -3.51565,4.35943 -5.27346,9.60943 -5.27343,15.75 l 0,43.17188 -13.35938,0 0,-75.30469 13.35938,0 0,12.02344 c 4.87497,-8.95306 12.11715,-13.42961 21.72656,-13.42969 2.39058,8e-5 5.83588,0.42195 10.33594,1.26562 l -5.55469,13.00782"
           style="font-variant:normal;font-stretch:normal;font-family:Trebuchet MS;-inkscape-font-specification:Trebuchet MS"
           id="path3040"
           inkscape:connector-curvature="0" />
        <path
           d="m 573.84042,544.74725 -8.71875,0 0,-10.54687 8.71875,0 0,-15.75 13.35938,-5.13281 0,20.88281 20.67187,0 0,10.54687 -20.67187,0 0,37.40625 c -3e-5,6.32815 1.05466,10.82814 3.16406,13.5 2.15622,2.67189 5.60153,4.00783 10.33594,4.00782 3.42183,10e-6 6.96089,-0.86718 10.61719,-2.60157 l 1.96875,11.74219 c -5.5313,1.40625 -11.60161,2.10937 -18.21094,2.10938 -5.95316,-1e-5 -10.99221,-2.20313 -15.11719,-6.60938 -4.07814,-4.45311 -6.1172,-10.05467 -6.11719,-16.80469 l 0,-42.75"
           style="font-variant:normal;font-stretch:normal;font-family:Trebuchet MS;-inkscape-font-specification:Trebuchet MS"
           id="path3042"
           inkscape:connector-curvature="0" />
        <path
           d="m 672.55917,609.50507 0,-47.32032 c -5e-5,-5.62494 -1.38286,-10.05463 -4.14843,-13.28906 -2.76568,-3.23431 -6.6563,-4.8515 -11.67188,-4.85156 -3.23441,6e-5 -6.49222,0.961 -9.77344,2.88281 -3.2344,1.87506 -5.71877,4.07818 -7.45312,6.60938 l 0,55.96875 -13.35938,0 0,-106.17188 13.35938,0 0,39.16406 c 1.78122,-2.76555 4.6406,-5.06242 8.57812,-6.89062 3.98434,-1.87493 8.0859,-2.81242 12.30469,-2.8125 7.9687,8e-5 14.20307,2.62507 18.70313,7.875 4.5468,5.25006 6.82024,12.42193 6.82031,21.51562 l 0,47.32032 -13.35938,0"
           style="font-variant:normal;font-stretch:normal;font-family:Trebuchet MS;-inkscape-font-specification:Trebuchet MS"
           id="path3044"
           inkscape:connector-curvature="0" />
      </g>
      <g
         style="font-size:38.99821854px;font-style:normal;font-weight:normal;line-height:125%;letter-spacing:0px;word-spacing:0px;fill:#000000;fill-opacity:1;stroke:none;font-family:Sans"
         id="text3092">
        <path
           d="m 69.531103,642.39218 -5.217535,14.14828 10.454112,0 -5.236577,-14.14828 m -2.1708,-3.78938 4.360641,0 10.834954,28.42985 -3.99884,0 -2.589726,-7.29312 -12.815332,0 -2.589726,7.29312 -4.055967,0 10.853996,-28.42985"
           id="path3047"
           inkscape:connector-curvature="0" />
        <path
           d="m 101.84555,656.38812 c -2e-5,-2.57702 -0.5332,-4.59548 -1.59954,-6.05539 -1.05368,-1.47257 -2.507225,-2.20886 -4.360642,-2.20888 -1.853442,2e-5 -3.313334,0.73631 -4.379682,2.20888 -1.053671,1.45991 -1.580502,3.47837 -1.580494,6.05539 -8e-6,2.57704 0.526823,4.60185 1.580494,6.07443 1.066348,1.4599 2.52624,2.18984 4.379682,2.18984 1.853417,0 3.306962,-0.72994 4.360642,-2.18984 1.06634,-1.47258 1.59952,-3.49739 1.59954,-6.07443 m -11.920358,-7.44546 c 0.736286,-1.26945 1.663001,-2.20886 2.780146,-2.81823 1.12982,-0.62202 2.47546,-0.93304 4.036925,-0.93306 2.589709,2e-5 4.690687,1.02829 6.302937,3.08482 1.6249,2.05656 2.43736,4.76054 2.43739,8.11193 -3e-5,3.35142 -0.81249,6.05539 -2.43739,8.11193 -1.61225,2.05655 -3.713228,3.08482 -6.302937,3.08482 -1.561465,0 -2.907105,-0.30467 -4.036925,-0.91402 -1.117145,-0.62204 -2.04386,-1.56779 -2.780146,-2.83727 l 0,3.19907 -3.522789,0 0,-29.6295 3.522789,0 0,11.53951"
           id="path3049"
           inkscape:connector-curvature="0" />
        <path
           d="m 124.88648,646.33389 0,3.31333 c -0.9902,-0.50777 -2.01847,-0.88862 -3.08482,-1.14253 -1.06637,-0.25387 -2.17081,-0.38082 -3.31332,-0.38084 -1.73919,2e-5 -3.04675,0.26661 -3.92267,0.79977 -0.86325,0.53319 -1.29487,1.33296 -1.29487,2.3993 0,0.81248 0.31102,1.45356 0.93307,1.92325 0.62203,0.45703 1.87246,0.895 3.75129,1.31391 l 1.19965,0.26659 c 2.48815,0.53319 4.25272,1.28852 5.2937,2.26601 1.05365,0.96481 1.58048,2.31679 1.5805,4.05597 -2e-5,1.98038 -0.78709,3.54818 -2.36122,4.70339 -1.56147,1.15522 -3.71322,1.73283 -6.45527,1.73283 -1.14254,0 -2.33584,-0.11425 -3.57992,-0.34275 -1.23139,-0.21581 -2.5326,-0.54588 -3.90363,-0.99019 l 0,-3.618 c 1.29486,0.67282 2.57068,1.18061 3.82746,1.52337 1.25678,0.33006 2.50086,0.49509 3.73226,0.49509 1.6503,0 2.91977,-0.27928 3.80842,-0.83785 0.88861,-0.57126 1.33293,-1.37103 1.33294,-2.39931 -10e-6,-0.95209 -0.32373,-1.68204 -0.97114,-2.18984 -0.63475,-0.50778 -2.03752,-0.99652 -4.20831,-1.46624 l -1.21869,-0.28563 c -2.17081,-0.457 -3.73861,-1.15521 -4.7034,-2.09463 -0.9648,-0.95209 -1.4472,-2.2533 -1.4472,-3.90363 0,-2.00575 0.7109,-3.55451 2.13271,-4.64627 1.42181,-1.09173 3.44027,-1.6376 6.05539,-1.63762 1.29485,2e-5 2.51355,0.0952 3.65608,0.28563 1.14252,0.19044 2.19618,0.47607 3.16099,0.85689"
           id="path3051"
           inkscape:connector-curvature="0" />
        <path
           d="m 139.89166,648.16193 c -1.87884,2e-5 -3.36412,0.73632 -4.45586,2.20889 -1.09175,1.45991 -1.63762,3.46567 -1.63762,6.0173 0,2.55165 0.53952,4.56376 1.61858,6.03635 1.09174,1.45989 2.58337,2.18984 4.4749,2.18984 1.86611,0 3.34504,-0.73629 4.4368,-2.20889 1.09173,-1.47258 1.63761,-3.47834 1.63762,-6.0173 -1e-5,-2.52624 -0.54589,-4.52566 -1.63762,-5.99826 -1.09176,-1.48527 -2.57069,-2.22791 -4.4368,-2.22793 m 0,-2.97056 c 3.04672,2e-5 5.43967,0.99021 7.17887,2.97056 1.73915,1.9804 2.60874,4.72246 2.60876,8.22619 -2e-5,3.49106 -0.86961,6.23312 -2.60876,8.22619 -1.7392,1.98038 -4.13215,2.97056 -7.17887,2.97056 -3.05944,0 -5.45875,-0.99018 -7.19792,-2.97056 -1.72648,-1.99307 -2.58973,-4.73513 -2.58972,-8.22619 -1e-5,-3.50373 0.86324,-6.24579 2.58972,-8.22619 1.73917,-1.98035 4.13848,-2.97054 7.19792,-2.97056"
           id="path3053"
           inkscape:connector-curvature="0" />
        <path
           d="m 155.4681,637.40315 3.50374,0 0,29.6295 -3.50374,0 0,-29.6295"
           id="path3055"
           inkscape:connector-curvature="0" />
        <path
           d="m 165.92221,658.61605 0,-12.91055 3.50374,0 0,12.77725 c 0,2.01847 0.39353,3.53549 1.18061,4.55106 0.78707,1.00289 1.96768,1.50433 3.54183,1.50433 1.89151,0 3.38314,-0.603 4.4749,-1.809 1.10442,-1.20599 1.65664,-2.84996 1.65666,-4.9319 l 0,-12.09174 3.50375,0 0,21.32715 -3.50375,0 0,-3.27524 c -0.85056,1.29487 -1.84075,2.25967 -2.97057,2.8944 -1.11715,0.62204 -2.41836,0.93306 -3.90363,0.93306 -2.45009,0 -4.30987,-0.76168 -5.57933,-2.28505 -1.26948,-1.52336 -1.90422,-3.75129 -1.90421,-6.68377"
           id="path3057"
           inkscape:connector-curvature="0" />
        <path
           d="m 194.50439,639.65012 0,6.05538 7.21696,0 0,2.72302 -7.21696,0 0,11.5776 c 0,1.73918 0.23485,2.85632 0.70456,3.35141 0.48239,0.4951 1.45354,0.74264 2.91344,0.74264 l 3.59896,0 0,2.93248 -3.59896,0 c -2.70398,0 -4.57011,-0.50144 -5.59838,-1.50432 -1.02827,-1.01558 -1.54241,-2.85631 -1.54241,-5.52221 l 0,-11.5776 -2.57068,0 0,-2.72302 2.57068,0 0,-6.05538 3.52279,0"
           id="path3059"
           inkscape:connector-curvature="0" />
        <path
           d="m 224.59092,655.49314 0,1.71379 -16.10961,0 c 0.15233,2.41201 0.87593,4.25274 2.1708,5.52221 1.30754,1.25678 3.12289,1.88517 5.44604,1.88517 1.34562,0 2.64683,-0.16503 3.90363,-0.4951 1.26945,-0.33006 2.52623,-0.82515 3.77033,-1.48528 l 0,3.31332 c -1.2568,0.53318 -2.54531,0.93941 -3.86554,1.2187 -1.32027,0.27928 -2.65957,0.41892 -4.01789,0.41892 -3.4022,0 -6.09982,-0.99018 -8.09289,-2.97056 -1.98038,-1.98038 -2.97057,-4.65896 -2.97057,-8.03577 0,-3.49104 0.93941,-6.25848 2.81823,-8.30235 1.89151,-2.05653 4.4368,-3.0848 7.63589,-3.08482 2.86899,2e-5 5.135,0.92673 6.79802,2.78014 1.67569,1.84076 2.51354,4.34796 2.51356,7.52163 m -3.50374,-1.02827 c -0.0254,-1.91689 -0.56494,-3.44661 -1.61858,-4.58915 -1.04099,-1.1425 -2.42471,-1.71377 -4.15118,-1.71379 -1.955,2e-5 -3.5228,0.55224 -4.7034,1.65667 -1.16792,1.10445 -1.84074,2.65956 -2.01846,4.66531 l 12.49162,-0.019"
           id="path3061"
           inkscape:connector-curvature="0" />
        <path
           d="m 238.96769,638.6028 24.05017,0 0,3.23716 -10.09231,0 0,25.19269 -3.86555,0 0,-25.19269 -10.09231,0 0,-3.23716"
           id="path3063"
           inkscape:connector-curvature="0" />
        <path
           d="m 273.28156,648.98074 c -0.39355,-0.22848 -0.82517,-0.39351 -1.29486,-0.49509 -0.45703,-0.11423 -0.96482,-0.17136 -1.52337,-0.17138 -1.98039,2e-5 -3.50376,0.64745 -4.57011,1.94229 -1.05367,1.28219 -1.5805,3.12927 -1.58049,5.54126 l 0,11.23483 -3.52279,0 0,-21.32715 3.52279,0 0,3.31333 c 0.73629,-1.29485 1.69474,-2.2533 2.87536,-2.87536 1.1806,-0.63471 2.6151,-0.95208 4.30351,-0.9521 0.24119,2e-5 0.50778,0.0191 0.79977,0.0571 0.29196,0.0254 0.61568,0.0699 0.97115,0.1333 l 0.019,3.59895"
           id="path3065"
           inkscape:connector-curvature="0" />
        <path
           d="m 276.67106,658.61605 0,-12.91055 3.50374,0 0,12.77725 c 0,2.01847 0.39353,3.53549 1.18061,4.55106 0.78707,1.00289 1.96768,1.50433 3.54183,1.50433 1.8915,0 3.38313,-0.603 4.4749,-1.809 1.10442,-1.20599 1.65664,-2.84996 1.65666,-4.9319 l 0,-12.09174 3.50374,0 0,21.32715 -3.50374,0 0,-3.27524 c -0.85057,1.29487 -1.84075,2.25967 -2.97057,2.8944 -1.11715,0.62204 -2.41836,0.93306 -3.90363,0.93306 -2.45009,0 -4.30987,-0.76168 -5.57933,-2.28505 -1.26948,-1.52336 -1.90422,-3.75129 -1.90421,-6.68377"
           id="path3067"
           inkscape:connector-curvature="0" />
        <path
           d="m 305.25325,639.65012 0,6.05538 7.21695,0 0,2.72302 -7.21695,0 0,11.5776 c -10e-6,1.73918 0.23484,2.85632 0.70456,3.35141 0.48239,0.4951 1.45353,0.74264 2.91344,0.74264 l 3.59895,0 0,2.93248 -3.59895,0 c -2.70399,0 -4.57011,-0.50144 -5.59838,-1.50432 -1.02828,-1.01558 -1.54241,-2.85631 -1.54241,-5.52221 l 0,-11.5776 -2.57068,0 0,-2.72302 2.57068,0 0,-6.05538 3.52279,0"
           id="path3069"
           inkscape:connector-curvature="0" />
        <path
           d="m 334.82563,654.16019 0,12.87246 -3.50375,0 0,-12.7582 c -2e-5,-2.01845 -0.39356,-3.52912 -1.18061,-4.53202 -0.78709,-1.00287 -1.9677,-1.50431 -3.54183,-1.50433 -1.89153,2e-5 -3.38316,0.60302 -4.47489,1.809 -1.09176,1.20602 -1.63763,2.84998 -1.63763,4.93191 l 0,12.05364 -3.52278,0 0,-29.6295 3.52278,0 0,11.61568 c 0.83785,-1.28215 1.82169,-2.2406 2.95153,-2.87536 1.14251,-0.63471 2.45642,-0.95208 3.94171,-0.9521 2.45007,2e-5 4.3035,0.7617 5.5603,2.28505 1.25676,1.51069 1.88514,3.73861 1.88517,6.68377"
           id="path3071"
           inkscape:connector-curvature="0" />
        <path
           d="m 342.34726,662.19596 4.01788,0 0,4.83669 -4.01788,0 0,-4.83669"
           id="path3073"
           inkscape:connector-curvature="0" />
        <path
           d="m 376.33741,642.39218 -5.21754,14.14828 10.45411,0 -5.23657,-14.14828 m -2.1708,-3.78938 4.36064,0 10.83495,28.42985 -3.99884,0 -2.58972,-7.29312 -12.81534,0 -2.58972,7.29312 -4.05597,0 10.854,-28.42985"
           id="path3075"
           inkscape:connector-curvature="0" />
        <path
           d="m 408.65185,656.38812 c -2e-5,-2.57702 -0.5332,-4.59548 -1.59954,-6.05539 -1.05368,-1.47257 -2.50722,-2.20886 -4.36064,-2.20888 -1.85344,2e-5 -3.31334,0.73631 -4.37968,2.20888 -1.05367,1.45991 -1.5805,3.47837 -1.5805,6.05539 0,2.57704 0.52683,4.60185 1.5805,6.07443 1.06634,1.4599 2.52624,2.18984 4.37968,2.18984 1.85342,0 3.30696,-0.72994 4.36064,-2.18984 1.06634,-1.47258 1.59952,-3.49739 1.59954,-6.07443 m -11.92036,-7.44546 c 0.73629,-1.26945 1.663,-2.20886 2.78015,-2.81823 1.12982,-0.62202 2.47546,-0.93304 4.03692,-0.93306 2.58971,2e-5 4.69069,1.02829 6.30294,3.08482 1.6249,2.05656 2.43736,4.76054 2.43739,8.11193 -3e-5,3.35142 -0.81249,6.05539 -2.43739,8.11193 -1.61225,2.05655 -3.71323,3.08482 -6.30294,3.08482 -1.56146,0 -2.9071,-0.30467 -4.03692,-0.91402 -1.11715,-0.62204 -2.04386,-1.56779 -2.78015,-2.83727 l 0,3.19907 -3.52279,0 0,-29.6295 3.52279,0 0,11.53951"
           id="path3077"
           inkscape:connector-curvature="0" />
        <path
           d="m 431.69279,646.33389 0,3.31333 c -0.99021,-0.50777 -2.01848,-0.88862 -3.08482,-1.14253 -1.06637,-0.25387 -2.17081,-0.38082 -3.31333,-0.38084 -1.73918,2e-5 -3.04674,0.26661 -3.92267,0.79977 -0.86325,0.53319 -1.29487,1.33296 -1.29486,2.3993 -1e-5,0.81248 0.31101,1.45356 0.93306,1.92325 0.62204,0.45703 1.87246,0.895 3.75129,1.31391 l 1.19966,0.26659 c 2.48815,0.53319 4.25272,1.28852 5.2937,2.26601 1.05364,0.96481 1.58048,2.31679 1.58049,4.05597 -10e-6,1.98038 -0.78709,3.54818 -2.36122,4.70339 -1.56146,1.15522 -3.71322,1.73283 -6.45527,1.73283 -1.14253,0 -2.33584,-0.11425 -3.57991,-0.34275 -1.2314,-0.21581 -2.53261,-0.54588 -3.90363,-0.99019 l 0,-3.618 c 1.29486,0.67282 2.57068,1.18061 3.82746,1.52337 1.25677,0.33006 2.50085,0.49509 3.73225,0.49509 1.6503,0 2.91978,-0.27928 3.80842,-0.83785 0.88862,-0.57126 1.33293,-1.37103 1.33295,-2.39931 -2e-5,-0.95209 -0.32373,-1.68204 -0.97115,-2.18984 -0.63475,-0.50778 -2.03752,-0.99652 -4.2083,-1.46624 l -1.2187,-0.28563 c -2.1708,-0.457 -3.7386,-1.15521 -4.7034,-2.09463 -0.9648,-0.95209 -1.4472,-2.2533 -1.4472,-3.90363 0,-2.00575 0.71091,-3.55451 2.13272,-4.64627 1.4218,-1.09173 3.44026,-1.6376 6.05539,-1.63762 1.29485,2e-5 2.51354,0.0952 3.65608,0.28563 1.14251,0.19044 2.19617,0.47607 3.16099,0.85689"
           id="path3079"
           inkscape:connector-curvature="0" />
        <path
           d="m 446.69794,648.16193 c -1.87883,2e-5 -3.36411,0.73632 -4.45585,2.20889 -1.09175,1.45991 -1.63762,3.46567 -1.63762,6.0173 0,2.55165 0.53952,4.56376 1.61858,6.03635 1.09174,1.45989 2.58337,2.18984 4.47489,2.18984 1.86612,0 3.34505,-0.73629 4.43681,-2.20889 1.09173,-1.47258 1.63761,-3.47834 1.63762,-6.0173 -1e-5,-2.52624 -0.54589,-4.52566 -1.63762,-5.99826 -1.09176,-1.48527 -2.57069,-2.22791 -4.43681,-2.22793 m 0,-2.97056 c 3.04673,2e-5 5.43968,0.99021 7.17888,2.97056 1.73915,1.9804 2.60874,4.72246 2.60876,8.22619 -2e-5,3.49106 -0.86961,6.23312 -2.60876,8.22619 -1.7392,1.98038 -4.13215,2.97056 -7.17888,2.97056 -3.05943,0 -5.45874,-0.99018 -7.19791,-2.97056 -1.72649,-1.99307 -2.58973,-4.73513 -2.58972,-8.22619 -10e-6,-3.50373 0.86323,-6.24579 2.58972,-8.22619 1.73917,-1.98035 4.13848,-2.97054 7.19791,-2.97056"
           id="path3081"
           inkscape:connector-curvature="0" />
        <path
           d="m 462.2744,637.40315 3.50375,0 0,29.6295 -3.50375,0 0,-29.6295"
           id="path3083"
           inkscape:connector-curvature="0" />
        <path
           d="m 472.72852,658.61605 0,-12.91055 3.50375,0 0,12.77725 c -1e-5,2.01847 0.39353,3.53549 1.18061,4.55106 0.78706,1.00289 1.96767,1.50433 3.54183,1.50433 1.8915,0 3.38313,-0.603 4.47489,-1.809 1.10443,-1.20599 1.65665,-2.84996 1.65666,-4.9319 l 0,-12.09174 3.50375,0 0,21.32715 -3.50375,0 0,-3.27524 c -0.85056,1.29487 -1.84075,2.25967 -2.97056,2.8944 -1.11715,0.62204 -2.41836,0.93306 -3.90363,0.93306 -2.4501,0 -4.30987,-0.76168 -5.57934,-2.28505 -1.26948,-1.52336 -1.90421,-3.75129 -1.90421,-6.68377"
           id="path3085"
           inkscape:connector-curvature="0" />
        <path
           d="m 501.31068,639.65012 0,6.05538 7.21696,0 0,2.72302 -7.21696,0 0,11.5776 c 0,1.73918 0.23485,2.85632 0.70456,3.35141 0.48239,0.4951 1.45354,0.74264 2.91344,0.74264 l 3.59896,0 0,2.93248 -3.59896,0 c -2.70399,0 -4.57011,-0.50144 -5.59838,-1.50432 -1.02827,-1.01558 -1.54241,-2.85631 -1.54241,-5.52221 l 0,-11.5776 -2.57068,0 0,-2.72302 2.57068,0 0,-6.05538 3.52279,0"
           id="path3087"
           inkscape:connector-curvature="0" />
        <path
           d="m 531.39723,655.49314 0,1.71379 -16.10962,0 c 0.15233,2.41201 0.87593,4.25274 2.1708,5.52221 1.30755,1.25678 3.12289,1.88517 5.44604,1.88517 1.34563,0 2.64684,-0.16503 3.90363,-0.4951 1.26946,-0.33006 2.52623,-0.82515 3.77034,-1.48528 l 0,3.31332 c -1.2568,0.53318 -2.54532,0.93941 -3.86555,1.2187 -1.32027,0.27928 -2.65956,0.41892 -4.01788,0.41892 -3.4022,0 -6.09983,-0.99018 -8.09289,-2.97056 -1.98039,-1.98038 -2.97057,-4.65896 -2.97057,-8.03577 0,-3.49104 0.9394,-6.25848 2.81823,-8.30235 1.89151,-2.05653 4.4368,-3.0848 7.63588,-3.08482 2.86899,2e-5 5.135,0.92673 6.79803,2.78014 1.67568,1.84076 2.51353,4.34796 2.51356,7.52163 m -3.50375,-1.02827 c -0.0254,-1.91689 -0.56493,-3.44661 -1.61858,-4.58915 -1.04098,-1.1425 -2.42471,-1.71377 -4.15118,-1.71379 -1.955,2e-5 -3.52279,0.55224 -4.70339,1.65667 -1.16793,1.10445 -1.84075,2.65956 -2.01847,4.66531 l 12.49162,-0.019"
           id="path3089"
           inkscape:connector-curvature="0" />
        <path
           d="m 537.14794,637.40315 3.50374,0 0,29.6295 -3.50374,0 0,-29.6295"
           id="path3091"
           inkscape:connector-curvature="0" />
        <path
           d="m 556.83744,669.01303 c -0.9902,2.53894 -1.955,4.19561 -2.8944,4.96999 -0.93941,0.77437 -2.19619,1.16156 -3.77033,1.16157 l -2.79919,0 0,-2.93249 2.05655,0 c 0.96479,0 1.71378,-0.22851 2.24696,-0.68551 0.53318,-0.45702 1.12348,-1.53607 1.77092,-3.23716 l 0.62839,-1.59953 -8.62607,-20.9844 3.71321,0 6.66473,16.68088 6.66474,-16.68088 3.71321,0 -9.36872,23.30753"
           id="path3093"
           inkscape:connector-curvature="0" />
        <path
           d="m 583.61064,638.6028 3.8465,0 0,26.44948 c -10e-6,3.42757 -0.65378,5.91574 -1.96133,7.4645 -1.29487,1.54875 -3.38315,2.32313 -6.26485,2.32313 l -1.46625,0 0,-3.23715 1.19966,0 c 1.70109,-10e-6 2.90074,-0.47606 3.59895,-1.42816 0.69821,-0.95211 1.04731,-2.65955 1.04732,-5.12232 l 0,-26.44948"
           id="path3095"
           inkscape:connector-curvature="0" />
        <path
           d="m 613.2021,655.49314 0,1.71379 -16.10962,0 c 0.15233,2.41201 0.87593,4.25274 2.1708,5.52221 1.30755,1.25678 3.12289,1.88517 5.44604,1.88517 1.34563,0 2.64684,-0.16503 3.90363,-0.4951 1.26946,-0.33006 2.52623,-0.82515 3.77034,-1.48528 l 0,3.31332 c -1.2568,0.53318 -2.54532,0.93941 -3.86555,1.2187 -1.32027,0.27928 -2.65956,0.41892 -4.01788,0.41892 -3.4022,0 -6.09983,-0.99018 -8.09289,-2.97056 -1.98039,-1.98038 -2.97057,-4.65896 -2.97057,-8.03577 0,-3.49104 0.93941,-6.25848 2.81823,-8.30235 1.89151,-2.05653 4.4368,-3.0848 7.63588,-3.08482 2.86899,2e-5 5.135,0.92673 6.79803,2.78014 1.67568,1.84076 2.51354,4.34796 2.51356,7.52163 m -3.50375,-1.02827 c -0.0254,-1.91689 -0.56493,-3.44661 -1.61858,-4.58915 -1.04098,-1.1425 -2.42471,-1.71377 -4.15118,-1.71379 -1.95499,2e-5 -3.52279,0.55224 -4.70339,1.65667 -1.16793,1.10445 -1.84075,2.65956 -2.01847,4.66531 l 12.49162,-0.019"
           id="path3097"
           inkscape:connector-curvature="0" />
        <path
           d="m 632.54887,646.33389 0,3.31333 c -0.99021,-0.50777 -2.01848,-0.88862 -3.08482,-1.14253 -1.06637,-0.25387 -2.17081,-0.38082 -3.31333,-0.38084 -1.73919,2e-5 -3.04674,0.26661 -3.92267,0.79977 -0.86325,0.53319 -1.29487,1.33296 -1.29486,2.3993 -10e-6,0.81248 0.31101,1.45356 0.93306,1.92325 0.62203,0.45703 1.87246,0.895 3.75129,1.31391 l 1.19966,0.26659 c 2.48815,0.53319 4.25271,1.28852 5.2937,2.26601 1.05364,0.96481 1.58047,2.31679 1.58049,4.05597 -2e-5,1.98038 -0.78709,3.54818 -2.36122,4.70339 -1.56146,1.15522 -3.71322,1.73283 -6.45527,1.73283 -1.14253,0 -2.33584,-0.11425 -3.57991,-0.34275 -1.2314,-0.21581 -2.53261,-0.54588 -3.90363,-0.99019 l 0,-3.618 c 1.29486,0.67282 2.57067,1.18061 3.82746,1.52337 1.25677,0.33006 2.50085,0.49509 3.73225,0.49509 1.6503,0 2.91978,-0.27928 3.80842,-0.83785 0.88862,-0.57126 1.33293,-1.37103 1.33295,-2.39931 -2e-5,-0.95209 -0.32373,-1.68204 -0.97115,-2.18984 -0.63475,-0.50778 -2.03752,-0.99652 -4.2083,-1.46624 l -1.2187,-0.28563 c -2.1708,-0.457 -3.7386,-1.15521 -4.7034,-2.09463 -0.9648,-0.95209 -1.4472,-2.2533 -1.4472,-3.90363 0,-2.00575 0.71091,-3.55451 2.13272,-4.64627 1.4218,-1.09173 3.44026,-1.6376 6.05539,-1.63762 1.29485,2e-5 2.51354,0.0952 3.65608,0.28563 1.14251,0.19044 2.19617,0.47607 3.16099,0.85689"
           id="path3099"
           inkscape:connector-curvature="0" />
        <path
           d="m 638.92792,658.61605 0,-12.91055 3.50375,0 0,12.77725 c -1e-5,2.01847 0.39353,3.53549 1.18061,4.55106 0.78706,1.00289 1.96767,1.50433 3.54183,1.50433 1.8915,0 3.38313,-0.603 4.47489,-1.809 1.10443,-1.20599 1.65665,-2.84996 1.65667,-4.9319 l 0,-12.09174 3.50374,0 0,21.32715 -3.50374,0 0,-3.27524 c -0.85057,1.29487 -1.84076,2.25967 -2.97057,2.8944 -1.11715,0.62204 -2.41836,0.93306 -3.90363,0.93306 -2.45009,0 -4.30987,-0.76168 -5.57934,-2.28505 -1.26947,-1.52336 -1.90421,-3.75129 -1.90421,-6.68377"
           id="path3101"
           inkscape:connector-curvature="0" />
        <path
           d="m 677.64054,646.33389 0,3.31333 c -0.9902,-0.50777 -2.01848,-0.88862 -3.08482,-1.14253 -1.06637,-0.25387 -2.17081,-0.38082 -3.31332,-0.38084 -1.73919,2e-5 -3.04675,0.26661 -3.92268,0.79977 -0.86324,0.53319 -1.29486,1.33296 -1.29486,2.3993 0,0.81248 0.31102,1.45356 0.93306,1.92325 0.62204,0.45703 1.87247,0.895 3.7513,1.31391 l 1.19965,0.26659 c 2.48815,0.53319 4.25272,1.28852 5.2937,2.26601 1.05365,0.96481 1.58048,2.31679 1.5805,4.05597 -2e-5,1.98038 -0.78709,3.54818 -2.36122,4.70339 -1.56147,1.15522 -3.71322,1.73283 -6.45527,1.73283 -1.14254,0 -2.33584,-0.11425 -3.57992,-0.34275 -1.23139,-0.21581 -2.5326,-0.54588 -3.90363,-0.99019 l 0,-3.618 c 1.29486,0.67282 2.57068,1.18061 3.82746,1.52337 1.25677,0.33006 2.50086,0.49509 3.73225,0.49509 1.65031,0 2.91978,-0.27928 3.80842,-0.83785 0.88862,-0.57126 1.33294,-1.37103 1.33295,-2.39931 -1e-5,-0.95209 -0.32373,-1.68204 -0.97115,-2.18984 -0.63475,-0.50778 -2.03751,-0.99652 -4.2083,-1.46624 l -1.21869,-0.28563 c -2.17081,-0.457 -3.73861,-1.15521 -4.7034,-2.09463 -0.96481,-0.95209 -1.4472,-2.2533 -1.4472,-3.90363 0,-2.00575 0.7109,-3.55451 2.13271,-4.64627 1.42181,-1.09173 3.44027,-1.6376 6.05539,-1.63762 1.29485,2e-5 2.51354,0.0952 3.65608,0.28563 1.14251,0.19044 2.19618,0.47607 3.16099,0.85689"
           id="path3103"
           inkscape:connector-curvature="0" />
        <path
           d="m 684.87655,662.19596 4.01789,0 0,4.83669 -4.01789,0 0,-4.83669"
           id="path3105"
           inkscape:connector-curvature="0" />
      </g>
    </g>
  </g>
</svg>
